<svg xmlns="http://www.w3.org/2000/svg" version="1.1" xmlns:xlink="http://www.w3.org/1999/xlink" width="3000" height="7000" viewBox="0 0 2000 4000">
  <svg xml:space="preserve" width="3000" height="5000" data-version="2" data-id="lg_WPZKW7HFKbcMtCdRIS" viewBox="0 0 487 487" x="0" y="0">
    <rect width="100%" height="100%" fill="transparent"></rect>
    <g transform="translate(243.5 243.5)scale(4.87)">
      <linearGradient id="a" x1="0" x2="1" y1="0" y2="0" gradientUnits="objectBoundingBox">
        <stop offset="0%" stop-color="#ff6cab"></stop>
        <stop offset="100%" stop-color="#7366ff"></stop>
      </linearGradient>
      <path fill="url(#a)" d="M50 100.08C22.355 100.047-.047 77.645-.08 50-.047 22.355 22.355-.047 50-.08c27.645.033 50.047 22.435 50.08 50.08-.033 27.645-22.435 50.047-50.08 50.08" transform="translate(-50 -50)"></path>
    </g>
    <rect width="217" height="412.45" x="-108.5" y="-206.225" fill="none" rx="0" ry="0" transform="translate(242.83 242.83)"></rect>
    <path fill="#111" d="M142.21 134.77v-6.57h69.35v6.57h-18.25l59.5 178.12 60.95-178.12h-18.25v-6.57h49.64v6.57h-13.5q-5.11 0-6.94 5.11l-74.82 218.27h-12.41l-74.83-218.27q-1.82-5.11-6.93-5.11z"></path>
  </svg>
</svg>